<svg><symbol xmlns="http://www.w3.org/2000/svg" viewBox="0 0 24 24" id="github"><path d="M12 .297c-6.63 0-12 5.373-12 12 0 5.303 3.438 9.8 8.205 11.385.6.113.82-.258.82-.577 0-.285-.01-1.04-.015-2.04-3.338.724-4.042-1.61-4.042-1.61C4.422 18.07 3.633 17.7 3.633 17.7c-1.087-.744.084-.729.084-.729 1.205.084 1.838 1.236 1.838 1.236 1.07 1.835 2.809 1.305 3.495.998.108-.776.417-1.305.76-1.605-2.665-.3-5.466-1.332-5.466-5.93 0-1.31.465-2.38 1.235-3.22-.135-.303-.54-1.523.105-3.176 0 0 1.005-.322 3.3 1.23.96-.267 1.98-.399 3-.405 1.02.006 2.04.138 3 .405 2.28-1.552 3.285-1.23 3.285-1.23.645 1.653.24 2.873.12 3.176.765.84 1.23 1.91 1.23 3.22 0 4.61-2.805 5.625-5.475 5.92.42.36.81 1.096.81 2.22 0 1.606-.015 2.896-.015 3.286 0 .315.21.69.825.57C20.565 22.092 24 17.592 24 12.297c0-6.627-5.373-12-12-12"></path></symbol><symbol xmlns="http://www.w3.org/2000/svg" viewBox="0 0 24 24" id="gitlab"><path d="m23.6004 9.5927-.0337-.0862L20.3.9814a.851.851 0 0 0-.3362-.405.8748.8748 0 0 0-.9997.0539.8748.8748 0 0 0-.29.4399l-2.2055 6.748H7.5375l-2.2057-6.748a.8573.8573 0 0 0-.29-.4412.8748.8748 0 0 0-.9997-.0537.8585.8585 0 0 0-.3362.4049L.4332 9.5015l-.0325.0862a6.0657 6.0657 0 0 0 2.0119 7.0105l.0113.0087.03.0213 4.976 3.7264 2.462 1.8633 1.4995 1.1321a1.0085 1.0085 0 0 0 1.2197 0l1.4995-1.1321 2.4619-1.8633 5.006-3.7489.0125-.01a6.0682 6.0682 0 0 0 2.0094-7.003z"></path></symbol><symbol xmlns="http://www.w3.org/2000/svg" viewBox="0 0 24 24" id="telegram"><path d="M11.944 0A12 12 0 0 0 0 12a12 12 0 0 0 12 12 12 12 0 0 0 12-12A12 12 0 0 0 12 0a12 12 0 0 0-.056 0zm4.962 7.224c.1-.002.321.023.465.14a.506.506 0 0 1 .171.325c.016.093.036.306.02.472-.18 1.898-.962 6.502-1.36 8.627-.168.9-.499 1.201-.82 1.23-.696.065-1.225-.46-1.9-.902-1.056-.693-1.653-1.124-2.678-1.8-1.185-.78-.417-1.21.258-1.91.177-.184 3.247-2.977 3.307-3.23.007-.032.014-.15-.056-.212s-.174-.041-.249-.024c-.106.024-1.793 1.14-5.061 3.345-.48.33-.913.49-1.302.48-.428-.008-1.252-.241-1.865-.44-.752-.245-1.349-.374-1.297-.789.027-.216.325-.437.893-.663 3.498-1.524 5.83-2.529 6.998-3.014 3.332-1.386 4.025-1.627 4.476-1.635z"></path></symbol><symbol xmlns="http://www.w3.org/2000/svg" viewBox="0 0 64 64" id="email-envelope"><path d="M53.42 53.32H10.58a8.51 8.51 0 0 1-8.5-8.5V19.18a8.51 8.51 0 0 1 8.5-8.5h42.84a8.51 8.51 0 0 1 8.5 8.5v25.64a8.51 8.51 0 0 1-8.5 8.5ZM10.58 13.68a5.5 5.5 0 0 0-5.5 5.5v25.64a5.5 5.5 0 0 0 5.5 5.5h42.84a5.5 5.5 0 0 0 5.5-5.5V19.18a5.5 5.5 0 0 0-5.5-5.5Z"></path><path d="M32 38.08a8.51 8.51 0 0 1-5.13-1.71L3.52 18.71a1.5 1.5 0 1 1 1.81-2.39L28.68 34a5.55 5.55 0 0 0 6.64 0l23.35-17.68a1.5 1.5 0 1 1 1.81 2.39L37.13 36.37A8.51 8.51 0 0 1 32 38.08Z"></path><path d="M4.17 49.14a1.5 1.5 0 0 1-1-2.62l18.4-16.41a1.5 1.5 0 0 1 2 2.24L5.17 48.76a1.46 1.46 0 0 1-1 .38zm55.66 0a1.46 1.46 0 0 1-1-.38l-18.4-16.41a1.5 1.5 0 1 1 2-2.24l18.39 16.41a1.5 1.5 0 0 1-1 2.62z"></path></symbol><symbol xmlns="http://www.w3.org/2000/svg" viewBox="0 0 379.45001 450.01999" id="resume"><path d="M309.45 0H70A70.051 70.051 0 0 0 0 70v310.02a70.048 70.048 0 0 0 20.516 49.48A70.065 70.065 0 0 0 70 450.02h239.45a70.051 70.051 0 0 0 70-70V70a70.048 70.048 0 0 0-20.516-49.48A70.065 70.065 0 0 0 309.45 0ZM123.48 62.609A35.784 35.784 0 1 1 87.695 98.39a35.843 35.843 0 0 1 10.496-25.285 35.83 35.83 0 0 1 25.289-10.496Zm-62.555 137.03a55.52 55.52 0 0 1 16.254-39.188 55.502 55.502 0 0 1 39.188-16.254h14.168a55.487 55.487 0 0 1 39.184 16.254 55.485 55.485 0 0 1 16.254 39.188v2.574a4.254 4.254 0 0 1-4.254 4.258H65.24a4.254 4.254 0 0 1-4.254-4.258zm255.64 166.43h-247.8c-7.73 0-14-6.266-14-14 0-7.73 6.27-14 14-14h247.8c7.73 0 14 6.27 14 14 0 7.734-6.27 14-14 14zm0-67.199h-247.8c-7.73 0-14-6.266-14-14 0-7.73 6.27-14 14-14h247.8c7.73 0 14 6.27 14 14 0 7.734-6.27 14-14 14zm0-100.8h-96.602c-7.73 0-14-6.266-14-14 0-7.73 6.27-14 14-14h96.602c7.73 0 14 6.27 14 14 0 7.734-6.27 14-14 14zm0-67.199h-96.602c-7.73 0-14-6.266-14-14 0-7.73 6.27-14 14-14h96.602c7.73 0 14 6.27 14 14 0 7.734-6.27 14-14 14z"></path></symbol></svg>