<?xml version="1.0" standalone="no"?>
<!DOCTYPE svg PUBLIC "-//W3C//DTD SVG 20010904//EN"
 "http://www.w3.org/TR/2001/REC-SVG-20010904/DTD/svg10.dtd">
<svg version="1.0" xmlns="http://www.w3.org/2000/svg"
 width="512.000000pt" height="512.000000pt" viewBox="0 0 512.000000 512.000000"
 preserveAspectRatio="xMidYMid meet">
<metadata>
Created by potrace 1.14, written by Peter Selinger 2001-2017
</metadata>
<g transform="translate(0.000000,512.000000) scale(0.100000,-0.100000)"
fill="#000000" stroke="none">
<path d="M0 2560 l0 -2560 2560 0 2560 0 0 2560 0 2560 -2560 0 -2560 0 0
-2560z m2186 137 c139 -363 255 -661 257 -663 5 -5 27 50 322 814 l198 512
138 0 139 0 0 -805 0 -805 -96 0 -97 0 7 663 c4 364 9 685 12 712 4 28 2 46
-2 42 -5 -5 -131 -324 -279 -710 l-271 -702 -76 -3 c-65 -2 -77 0 -83 15 -3
10 -126 331 -272 713 -146 382 -266 696 -267 697 0 1 0 -320 2 -713 l3 -714
-85 0 -86 0 0 805 0 806 142 -3 142 -3 252 -658z"/>
</g>
</svg>
